# xmcd
#
# Track frame offsets:
#       150
#       12012
#       22470
#       37055
#       51162
#       66757
#       97787
#       115027
#       131552
#       144727
#       161197
#       181717
#
# Disc length: 2602 seconds
#
# Revision: 1
# Processed by: cddbd v1.4PL0 Copyright (c) Steve Scherf et al.
# Submitted via: MusiCat 1.1
#
DISCID=a20a280c
DTITLE=Cowboy Group - The Wonderful World of Contry and Folk
DYEAR=1900
DGENRE=
TTITLE0=Have You Ever Seen The Rain
TTITLE1=Hello Mary Lou
TTITLE2=Do You Wanna Dance?
TTITLE3=Ticket to Ride
TTITLE4=Mr. Tambourine Man
TTITLE5=Hotel California
TTITLE6=Listen To The Music 
TTITLE7=Dream a Little Dream of Me
TTITLE8=Everybody's Talking
TTITLE9=It Never Rains In Southern California
TTITLE10=The House of The Rising sun
TTITLE11=Bus Stop
EXTD=0\n\n\n
EXTT0=
EXTT1=
EXTT2=
EXTT3=
EXTT4=
EXTT5=
EXTT6=
EXTT7=
EXTT8=
EXTT9=
EXTT10=
EXTT11=
PLAYORDER=
